<?xml version="1.0" standalone="yes"?>

<svg version="1.1" viewBox="0.0 0.0 682.4041994750656 190.56167979002623" fill="none" stroke="none" stroke-linecap="square" stroke-miterlimit="10" xmlns="http://www.w3.org/2000/svg" xmlns:xlink="http://www.w3.org/1999/xlink"><clipPath id="p.0"><path d="m0 0l682.4042 0l0 190.56168l-682.4042 0l0 -190.56168z" clip-rule="nonzero"></path></clipPath><g clip-path="url(#p.0)"><path fill="#000000" fill-opacity="0.0" d="m0 0l682.4042 0l0 190.56168l-682.4042 0z" fill-rule="evenodd"></path><path fill="#5cafb5" d="m11.834645 1.4232284c-5.724409 0 -10.259842 4.6430445 -10.259842 10.367455l0 166.43832c0 5.724411 4.535433 10.370071 10.259842 10.370071l188.47244 0c5.724411 0 10.259842 -4.6456604 10.259842 -10.370071l0 -166.43832c0 -5.72441 -4.535431 -10.367455 -10.259842 -10.367455z" fill-rule="evenodd"></path><path fill="#345f60" d="m22.204725 14.276247c-4.3202114 0 -7.776904 3.5643044 -7.776904 7.776903l0 56.811024c0 4.3202057 3.4566927 7.7769012 7.776904 7.7769012l167.73491 0c4.3202057 0 7.7769012 -3.4566956 7.7769012 -7.7769012l0 -56.811024c0 -4.212599 -3.4566956 -7.776903 -7.7769012 -7.776903z" fill-rule="evenodd"></path><path fill="#ffffff" d="m530.6457 135.76706c-0.54071045 0 -1.0787354 0.10760498 -1.4042358 0.43307495c-0.43041992 0.3228302 -0.8635254 0.6482849 -1.0787354 1.1889801l-0.21783447 -1.5144501l-1.6194458 0l0 10.262482l1.8372803 0l0 -7.2362213c0.10760498 -0.43307495 0.43048096 -0.75590515 0.7559204 -1.0813751c0.32281494 -0.21522522 0.7559204 -0.3228302 1.2965698 -0.3228302l0.8635254 0.10760498l0.32281494 -1.72966c-0.10760498 -0.10760498 -0.21520996 -0.10760498 -0.32281494 -0.10760498z" fill-rule="evenodd"></path><path fill="#ffffff" d="m537.2336 137.17126c0.8661499 0 1.6220703 0.4330597 2.0524902 1.0813599c0.43310547 0.75590515 0.6483154 1.6194153 0.6483154 2.698166l0 0.21784973c0 1.0787354 -0.21520996 1.9422455 -0.6483154 2.7007751c-0.43041992 0.64567566 -1.1863403 0.9711304 -2.0524902 0.9711304c-0.8635254 0 -1.5117798 -0.3254547 -2.0498657 -0.9711304c-0.43304443 -0.75852966 -0.6482544 -1.6220398 -0.6482544 -2.7007751l0 -0.21784973c0 -1.0787506 0.21520996 -1.9422607 0.6482544 -2.698166c0.53808594 -0.6483002 1.1863403 -1.0813599 2.0498657 -1.0813599zm0 -1.4042053c-1.4041748 0 -2.4829102 0.43307495 -3.3464355 1.4042053c-0.7559204 0.9737549 -1.1889648 2.2677155 -1.1889648 3.7795258l0 0.21784973c0 1.5118103 0.43304443 2.7007751 1.1889648 3.6719055c0.8635254 0.9711304 1.9422607 1.5118103 3.3464355 1.5118103c1.4042358 0 2.5932007 -0.54067993 3.349121 -1.5118103c0.86346436 -0.9711304 1.2965698 -2.1600952 1.2965698 -3.6719055l0 -0.21784973c0 -1.5118103 -0.43310547 -2.8057709 -1.2965698 -3.7795258c-0.7559204 -0.9711304 -1.9448853 -1.4042053 -3.349121 -1.4042053z" fill-rule="evenodd"></path><path fill="#ffffff" d="m544.6877 131.44685l0 1.837265l1.8346558 0l0 -1.837265zm0 4.4278107l0 10.262482l1.8346558 0l0 -10.262482z" fill-rule="evenodd"></path><path fill="#ffffff" d="m553.8688 137.27887c0.5380249 0 0.9711304 0.11024475 1.2939453 0.3254547c0.43310547 0.32284546 0.7559204 0.6483002 0.9737549 1.0787506l0 4.7532806c-0.21783447 0.4330597 -0.5406494 0.75590515 -0.9737549 1.0787354c-0.32281494 0.21784973 -0.7559204 0.3254547 -1.4041748 0.3254547c-0.8635254 0 -1.5118408 -0.3254547 -1.9422607 -0.9711304c-0.43310547 -0.54067993 -0.6483154 -1.4041901 -0.6483154 -2.48555l0 -0.10762024c0 -1.1889801 0.21520996 -2.1601105 0.6483154 -2.9160156c0.43041992 -0.75590515 1.0787354 -1.0813599 2.0524902 -1.0813599zm2.2677002 -5.832016l0 5.616791c-0.32543945 -0.4330597 -0.7559204 -0.75590515 -1.1889648 -0.9711304c-0.43041992 -0.21784973 -0.9711304 -0.3254547 -1.6194458 -0.3254547c-1.2965698 0 -2.2677002 0.43307495 -2.9160156 1.5118103c-0.7558594 0.9737549 -1.0813599 2.27034 -1.0813599 3.9973755l0 0.10762024c0 1.5118103 0.3255005 2.7007751 1.0813599 3.5643005c0.6483154 0.9711304 1.6194458 1.4041901 2.9160156 1.4041901c0.6483154 0 1.1890259 -0.10760498 1.7270508 -0.3228302c0.43304443 -0.3254547 0.8635254 -0.6482849 1.1889648 -1.0813599l0.21520996 1.1889801l1.5118408 0l0 -14.690292z" fill-rule="evenodd"></path><path fill="#ffffff" d="m560.1312 139.65683l0 1.4041901l4.645691 0l0 -1.4041901z" fill-rule="evenodd"></path><path fill="#ffffff" d="m572.76904 132.42061l0 9.934372c0 0.75590515 -0.21520996 1.4042053 -0.6483154 1.8372803c-0.43304443 0.43307495 -1.0787354 0.6482849 -1.7270508 0.6482849c-0.7558594 0 -1.4041748 -0.21520996 -1.8372192 -0.54067993c-0.43310547 -0.43045044 -0.6483154 -1.0787354 -0.6483154 -1.9448853l-1.8346558 0c0 1.2966003 0.43048096 2.2703552 1.1863403 3.0262604c0.7559204 0.6482849 1.8372803 0.9711151 3.13385 0.9711151c1.2940063 0 2.2677612 -0.3228302 3.0236206 -1.0813599c0.7559204 -0.75590515 1.1890259 -1.7270355 1.1890259 -2.9160156l0 -9.934372z" fill-rule="evenodd"></path><path fill="#ffffff" d="m584.0026 141.38387l0 1.7270203c-0.21783447 0.43307495 -0.54071045 0.75852966 -1.0813599 1.1889801c-0.54071045 0.32546997 -1.1889648 0.43307495 -1.8346558 0.43307495c-0.5406494 0 -0.9737549 -0.10760498 -1.1889648 -0.3254547c-0.32543945 -0.32284546 -0.43310547 -0.6483002 -0.43310547 -1.0787506c0 -0.54067993 0.21789551 -0.9737549 0.6483154 -1.2965851c0.43310547 -0.43307495 1.0813599 -0.6482849 1.8372803 -0.6482849zm-2.0524902 -5.616806c-1.0813599 0 -2.0524902 0.3254547 -2.8084106 0.8635254c-0.7559204 0.6482849 -1.0813599 1.2965851 -1.0813599 2.0524902l0 0.10760498l1.8372803 0c0 -0.43045044 0.10760498 -0.86351013 0.5406494 -1.0787354c0.32287598 -0.3228302 0.8635254 -0.54067993 1.4042358 -0.54067993c0.7559204 0 1.1863403 0.21784973 1.6193848 0.54067993c0.32287598 0.3228302 0.54071045 0.86351013 0.54071045 1.4041901l0 1.0787506l-2.0524902 0c-1.2965698 0 -2.3779297 0.21784973 -3.241455 0.75590515c-0.7559204 0.54067993 -1.1863403 1.4041901 -1.1863403 2.377945c0 0.8635254 0.32281494 1.6194305 0.86346436 2.1601105c0.54071045 0.54067993 1.4042358 0.86351013 2.4829712 0.86351013c0.6483154 0 1.1889648 -0.21520996 1.7296753 -0.54067993c0.6482544 -0.3228302 1.0787354 -0.6482849 1.4041748 -1.1863403c0 0.21520996 0 0.43043518 0 0.75590515c0.10760498 0.21520996 0.10760498 0.43043518 0.21520996 0.75590515l1.9448853 0c-0.11022949 -0.32546997 -0.21783447 -0.6483002 -0.21783447 -0.9737549c-0.10760498 -0.32284546 -0.10760498 -0.75590515 -0.10760498 -1.0787506l0 -4.8608856c0 -1.1889801 -0.32281494 -2.0524902 -1.0787354 -2.5931702c-0.6483154 -0.64567566 -1.6220703 -0.8635254 -2.8084106 -0.8635254z" fill-rule="evenodd"></path><path fill="#ffffff" d="m587.8898 135.87466l3.779541 10.262482l1.4041748 0l3.7821655 -10.262482l-1.8372803 0l-2.3753052 7.2362213l-0.21789551 0.75852966l-0.21520996 -0.75852966l-2.3753052 -7.2362213z" fill-rule="evenodd"></path><path fill="#ffffff" d="m604.8478 141.38387l0 1.7270203c-0.10760498 0.43307495 -0.54071045 0.75852966 -1.0813599 1.1889801c-0.54071045 0.32546997 -1.0787354 0.43307495 -1.8346558 0.43307495c-0.54071045 0 -0.9737549 -0.10760498 -1.1889648 -0.3254547c-0.32287598 -0.32284546 -0.43310547 -0.6483002 -0.43310547 -1.0787506c0 -0.54067993 0.21789551 -0.9737549 0.6483154 -1.2965851c0.43304443 -0.43307495 1.0813599 -0.6482849 1.8372803 -0.6482849zm-1.9448853 -5.616806c-1.1889648 0 -2.1600952 0.3254547 -2.9160156 0.8635254c-0.7559204 0.6482849 -1.0813599 1.2965851 -1.0813599 2.0524902l0.11022949 0.10760498l1.7270508 0c0 -0.43045044 0.21520996 -0.86351013 0.5406494 -1.0787354c0.43048096 -0.3228302 0.8635254 -0.54067993 1.5118408 -0.54067993c0.6482544 0 1.1863403 0.21784973 1.5117798 0.54067993c0.32287598 0.3228302 0.54071045 0.86351013 0.54071045 1.4041901l0 1.0787506l-2.0524902 0c-1.2966309 0 -2.3753662 0.21784973 -3.13385 0.75590515c-0.8635254 0.54067993 -1.1864014 1.4041901 -1.1864014 2.377945c0 0.8635254 0.215271 1.6194305 0.7559204 2.1601105c0.6483154 0.54067993 1.4042358 0.86351013 2.4829712 0.86351013c0.6482544 0 1.1889648 -0.21520996 1.8372803 -0.54067993c0.5406494 -0.3228302 0.9711304 -0.6482849 1.2965698 -1.1863403c0 0.21520996 0 0.43043518 0.10760498 0.75590515c0 0.21520996 0 0.43043518 0.10760498 0.75590515l1.9448853 0c-0.10760498 -0.32546997 -0.21783447 -0.6483002 -0.21783447 -0.9737549c0 -0.32284546 -0.10760498 -0.75590515 -0.10760498 -1.0787506l0 -4.8608856c0 -1.1889801 -0.32287598 -2.0524902 -0.9711304 -2.5931702c-0.7559204 -0.64567566 -1.7296753 -0.8635254 -2.8084106 -0.8635254z" fill-rule="evenodd"></path><path fill="#ffffff" d="m620.0761 132.20276c-1.6194458 0 -2.8084106 0.54067993 -3.779541 1.6220398c-1.0813599 1.0787506 -1.5117798 2.4829407 -1.5117798 4.209976l0 2.4855652c0 1.7270355 0.43041992 3.0236206 1.5117798 4.2126007c0.9711304 1.0787354 2.1600952 1.6194153 3.779541 1.6194153c1.5118408 0 2.7008057 -0.4330597 3.671936 -1.2965851c0.9711304 -0.86351013 1.4041748 -1.9448853 1.4041748 -3.2388458l-0.10760498 -0.10760498l-1.7296753 0c0 0.9711304 -0.32281494 1.8346405 -0.8635254 2.3753204c-0.5380249 0.5406952 -1.4041748 0.75590515 -2.3753052 0.75590515c-1.0813599 0 -1.9448853 -0.3254547 -2.4855347 -1.1889648c-0.6456909 -0.8635254 -0.9711304 -1.9422607 -0.9711304 -3.1312408l0 -2.4855652c0 -1.2939606 0.32543945 -2.2677155 0.9711304 -3.1312256c0.5406494 -0.8635254 1.4041748 -1.2966003 2.4855347 -1.2966003c0.9711304 0 1.8372803 0.32546997 2.3753052 0.8635254c0.54071045 0.54067993 0.8635254 1.4041901 0.8635254 2.27034l1.8372803 0c0 -1.4042053 -0.43304443 -2.4855652 -1.4041748 -3.3490753c-0.8635254 -0.75590515 -2.1600952 -1.1889801 -3.671936 -1.1889801z" fill-rule="evenodd"></path><path fill="#ffffff" d="m627.853 131.44685l0 14.690292l1.8346558 0l0 -14.690292z" fill-rule="evenodd"></path><path fill="#ffffff" d="m633.03674 131.44685l0 1.837265l1.9448853 0l0 -1.837265zm0 4.4278107l0 10.262482l1.9448853 0l0 -10.262482z" fill-rule="evenodd"></path><path fill="#ffffff" d="m642.1102 137.17126c0.7559204 0 1.4042358 0.3254547 1.7270508 0.75590515c0.43304443 0.54067993 0.6482544 1.0813599 0.6482544 1.837265l0 0.21522522l-4.753235 0c0.11022949 -0.75590515 0.32543945 -1.5118103 0.8661499 -1.9448853c0.43041992 -0.5380554 0.9711304 -0.86351013 1.5117798 -0.86351013zm0 -1.4042053c-1.1889648 0 -2.1600952 0.43307495 -3.026245 1.4042053c-0.8635254 0.9737549 -1.2939453 2.1600952 -1.2939453 3.6719055l0 0.43307495c0 1.5118103 0.43041992 2.7007904 1.2939453 3.6719208c0.7585449 0.9711304 1.9448853 1.4041901 3.34906 1.4041901c0.8635254 0 1.6194458 -0.10760498 2.1601562 -0.3228302c0.6482544 -0.3254547 1.0813599 -0.54067993 1.4041748 -0.9737549l-0.6483154 -1.1863556c-0.43041992 0.32284546 -0.7558594 0.5380707 -1.2965698 0.7559204c-0.43041992 0.21520996 -0.9711304 0.21520996 -1.6194458 0.21520996c-0.86346436 0 -1.5117798 -0.21520996 -2.0524902 -0.86351013c-0.43041992 -0.6483002 -0.6482544 -1.5118103 -0.7558594 -2.4855652l6.69812 0l0 -1.1863556c0 -1.4041901 -0.32543945 -2.4855652 -1.0813599 -3.3490753c-0.6482544 -0.75590515 -1.7269897 -1.1889801 -3.1312256 -1.1889801z" fill-rule="evenodd"></path><path fill="#ffffff" d="m653.6667 135.76706c-0.6483154 0 -1.2966309 0.10760498 -1.7296753 0.43307495c-0.53808594 0.3228302 -0.9711304 0.75590515 -1.2939453 1.2965851l-0.21789551 -1.622055l-1.6193848 0l0 10.262482l1.8372803 0l0 -7.454071c0.32281494 -0.43045044 0.6456299 -0.75590515 0.9711304 -1.0787506c0.43304443 -0.21520996 0.9711304 -0.3254547 1.5117798 -0.3254547c0.6483154 0 1.1889648 0.11024475 1.6194458 0.54067993c0.32543945 0.32546997 0.5406494 0.9711304 0.5406494 1.9448853l0 6.372711l1.8372803 0l0 -6.480316c0 -1.2966003 -0.32543945 -2.2677155 -0.9737549 -2.9160156c-0.5380249 -0.6483002 -1.4041748 -0.9737549 -2.4829102 -0.9737549z" fill-rule="evenodd"></path><path fill="#ffffff" d="m660.7953 133.49934l0 2.3753204l-1.6220703 0l0 1.4042053l1.6220703 0l0 6.265091c0 0.9711304 0.21520996 1.6194305 0.6482544 2.1601105c0.43048096 0.43307495 1.0787964 0.6482849 1.8346558 0.6482849c0.21783447 0 0.54071045 0 0.7559204 -0.10760498c0.32543945 -0.10760498 0.54071045 -0.21522522 0.6483154 -0.3254547l-0.215271 -1.1863556l-0.32543945 0c-0.21520996 0.10760498 -0.32281494 0.10760498 -0.43041992 0.10760498c-0.3255005 0 -0.54071045 -0.10760498 -0.7559204 -0.3254547c-0.21783447 -0.21522522 -0.32543945 -0.5380554 -0.32543945 -0.9711304l0 -6.265091l1.9448853 0l0 -1.4042053l-1.9448853 0l0 -2.3753204z" fill-rule="evenodd"></path><path fill="#5cafb5" d="m482.0971 1.9652231c-5.7243958 0 -10.259827 4.6430445 -10.259827 10.367454l0 166.43832c0 5.724411 4.535431 10.370087 10.259827 10.370087l188.47247 0c5.724365 0 10.259827 -4.6456757 10.259827 -10.370087l0 -166.43832c0 -5.724409 -4.5354614 -10.367454 -10.259827 -10.367454z" fill-rule="evenodd"></path><path fill="#345f60" d="m492.4672 14.818241c-4.320221 0 -7.7769165 3.5643044 -7.7769165 7.776903l0 56.81102c0 4.3202133 3.4566956 7.7769012 7.7769165 7.7769012l167.7349 0c4.3202515 0 7.7769165 -3.456688 7.7769165 -7.7769012l0 -56.81102c0 -4.212599 -3.456665 -7.776903 -7.7769165 -7.776903z" fill-rule="evenodd"></path><path fill="#000000" fill-opacity="0.0" d="m484.68765 28.341864l183.2756 0l0 42.866142l-183.2756 0z" fill-rule="evenodd"></path><path fill="#ffffff" d="m511.9921 50.152485q0 -2.34375 1.0780945 -3.71875q1.09375 -1.390625 2.890625 -1.390625q1.828125 0 2.859375 1.296875l0.078125 -1.109375l1.578125 0l0 9.796875q0 1.9375 -1.15625 3.0625q-1.15625 1.125 -3.109375 1.125q-1.078125 0 -2.125 -0.46875q-1.03125 -0.453125 -1.578125 -1.265625l0.890625 -1.03125q1.09375 1.359375 2.6875 1.359375q1.265625 0 1.953125 -0.703125q0.703125 -0.703125 0.703125 -1.984375l0 -0.859375q-1.03125 1.1875 -2.8125 1.1875q-1.75 0 -2.84375 -1.421875q-1.0937195 -1.421875 -1.0937195 -3.875zm1.7187195 0.203125q0 1.703125 0.703125 2.671875q0.703125 0.96875 1.953125 0.96875q1.625 0 2.375 -1.484375l0 -4.578125q-0.78125 -1.4375 -2.359375 -1.4375q-1.25 0 -1.96875 0.984375q-0.703125 0.96875 -0.703125 2.875zm14.373108 -0.5625l-3.171875 0l0 5.46875l-1.78125 0l0 -13.515625l4.46875 0q2.28125 0 3.5 1.046875q1.234375 1.03125 1.234375 3.03125q0 1.25 -0.6875 2.1875q-0.671875 0.9375 -1.890625 1.40625l3.171875 5.734375l0 0.109375l-1.90625 0l-2.9375 -5.46875zm-3.171875 -1.453125l2.75 0q1.3125 0 2.09375 -0.6875q0.796875 -0.6875 0.796875 -1.828125q0 -1.265625 -0.75 -1.921875q-0.75 -0.671875 -2.15625 -0.6875l-2.734375 0l0 5.125zm11.487061 1.640625l0 5.28125l-1.78125 0l0 -13.515625l4.984375 0q2.21875 0 3.46875 1.140625q1.265625 1.125 1.265625 3.0q0 1.96875 -1.234375 3.03125q-1.21875 1.0625 -3.515625 1.0625l-3.1875 0zm0 -1.46875l3.203125 0q1.4375 0 2.1875 -0.671875q0.765625 -0.671875 0.765625 -1.9375q0 -1.203125 -0.765625 -1.921875q-0.75 -0.734375 -2.078125 -0.765625l-3.3125 0l0 5.296875zm19.92572 2.46875q-0.25 2.140625 -1.578125 3.3125q-1.328125 1.15625 -3.53125 1.15625q-2.40625 0 -3.84375 -1.71875q-1.4375 -1.71875 -1.4375 -4.59375l0 -1.296875q0 -1.890625 0.671875 -3.3125q0.671875 -1.421875 1.90625 -2.1875q1.234375 -0.765625 2.859375 -0.765625q2.140625 0 3.4375 1.203125q1.3125 1.1875 1.515625 3.3125l-1.78125 0q-0.234375 -1.609375 -1.015625 -2.328125q-0.765625 -0.734375 -2.15625 -0.734375q-1.71875 0 -2.6875 1.265625q-0.96875 1.265625 -0.96875 3.59375l0 1.3125q0 2.1875 0.921875 3.5q0.921875 1.296875 2.578125 1.296875q1.484375 0 2.265625 -0.671875q0.796875 -0.671875 1.0625 -2.34375l1.78125 0zm5.5179443 -0.75l-4.53125 0l0 -1.40625l4.53125 0l0 1.40625zm4.7562256 0.765625l0.25 1.78125l0.390625 -1.59375l2.671875 -9.4375l1.5 0l2.609375 9.4375l0.375 1.625l0.28125 -1.8125l2.09375 -9.25l1.796875 0l-3.28125 13.515625l-1.625 0l-2.78125 -9.84375l-0.21875 -1.03125l-0.203125 1.03125l-2.890625 9.84375l-1.625 0l-3.265625 -13.515625l1.78125 0l2.140625 9.25zm17.536377 4.453125q-2.046875 0 -3.328125 -1.34375q-1.28125 -1.34375 -1.28125 -3.578125l0 -0.328125q0 -1.484375 0.5625 -2.65625q0.578125 -1.171875 1.59375 -1.828125q1.03125 -0.671875 2.234375 -0.671875q1.953125 0 3.03125 1.296875q1.09375 1.28125 1.09375 3.6875l0 0.703125l-6.796875 0q0.03125 1.484375 0.859375 2.40625q0.84375 0.90625 2.125 0.90625q0.90625 0 1.53125 -0.359375q0.640625 -0.375 1.109375 -0.984375l1.046875 0.8125q-1.265625 1.9375 -3.78125 1.9375zm-0.21875 -9.0q-1.03125 0 -1.75 0.765625q-0.703125 0.75 -0.859375 2.109375l5.015625 0l0 -0.125q-0.0625 -1.3125 -0.703125 -2.03125q-0.625 -0.71875 -1.703125 -0.71875zm14.430664 3.90625q0 2.296875 -1.0625 3.703125q-1.046875 1.390625 -2.828125 1.390625q-1.90625 0 -2.953125 -1.34375l-0.078125 1.15625l-1.578125 0l0 -14.25l1.71875 0l0 5.3125q1.03125 -1.28125 2.859375 -1.28125q1.828125 0 2.875 1.390625q1.046875 1.375 1.046875 3.765625l0 0.15625zm-1.71875 -0.203125q0 -1.75 -0.6875 -2.703125q-0.671875 -0.953125 -1.9375 -0.953125q-1.703125 0 -2.4375 1.578125l0 4.34375q0.78125 1.578125 2.453125 1.578125q1.234375 0 1.921875 -0.953125q0.6875 -0.96875 0.6875 -2.890625zm12.554077 -0.90625q-2.296875 -0.671875 -3.34375 -1.625q-1.03125 -0.953125 -1.03125 -2.375q0 -1.59375 1.265625 -2.625q1.28125 -1.046875 3.328125 -1.046875q1.390625 0 2.46875 0.53125q1.09375 0.53125 1.6875 1.484375q0.609375 0.953125 0.609375 2.0625l-1.796875 0q0 -1.21875 -0.78125 -1.921875q-0.765625 -0.703125 -2.1875 -0.703125q-1.328125 0 -2.0625 0.59375q-0.734375 0.578125 -0.734375 1.609375q0 0.8125 0.703125 1.390625q0.703125 0.5625 2.375 1.046875q1.6875 0.46875 2.640625 1.046875q0.953125 0.5625 1.40625 1.328125q0.46875 0.75 0.46875 1.78125q0 1.640625 -1.28125 2.640625q-1.28125 0.984375 -3.421875 0.984375q-1.390625 0 -2.609375 -0.53125q-1.203125 -0.53125 -1.859375 -1.453125q-0.640625 -0.9375 -0.640625 -2.125l1.78125 0q0 1.234375 0.90625 1.953125q0.90625 0.703125 2.421875 0.703125q1.40625 0 2.15625 -0.578125q0.75 -0.578125 0.75 -1.5625q0 -1.0 -0.703125 -1.546875q-0.6875 -0.546875 -2.515625 -1.0625zm9.146179 -6.453125l0 2.4375l1.875 0l0 1.3125l-1.875 0l0 6.234375q0 0.59375 0.25 0.90625q0.25 0.296875 0.859375 0.296875q0.296875 0 0.8125 -0.109375l0 1.390625q-0.671875 0.1875 -1.3125 0.1875q-1.15625 0 -1.75 -0.6875q-0.578125 -0.703125 -0.578125 -1.984375l0 -6.234375l-1.828125 0l0 -1.3125l1.828125 0l0 -2.4375l1.71875 0zm9.969238 11.46875q-1.0 1.1875 -2.9375 1.1875q-1.609375 0 -2.453125 -0.921875q-0.84375 -0.9375 -0.84375 -2.765625l0 -6.53125l1.71875 0l0 6.484375q0 2.28125 1.84375 2.28125q1.96875 0 2.625 -1.46875l0 -7.296875l1.71875 0l0 10.03125l-1.640625 0l-0.03125 -1.0zm12.581482 -3.90625q0 2.296875 -1.0625 3.703125q-1.046875 1.390625 -2.828125 1.390625q-1.90625 0 -2.953125 -1.34375l-0.078125 1.15625l-1.578125 0l0 -14.25l1.71875 0l0 5.3125q1.03125 -1.28125 2.859375 -1.28125q1.828125 0 2.875 1.390625q1.046875 1.375 1.046875 3.765625l0 0.15625zm-1.71875 -0.203125q0 -1.75 -0.6875 -2.703125q-0.671875 -0.953125 -1.9375 -0.953125q-1.703125 0 -2.4375 1.578125l0 4.34375q0.78125 1.578125 2.453125 1.578125q1.234375 0 1.921875 -0.953125q0.6875 -0.96875 0.6875 -2.890625z" fill-rule="nonzero"></path><path fill="#000000" fill-opacity="0.0" d="m14.433071 28.341864l183.27559 0l0 42.866142l-183.27559 0z" fill-rule="evenodd"></path><path fill="#ffffff" d="m55.47006 50.152485q0 -2.34375 1.078125 -3.71875q1.09375 -1.390625 2.890625 -1.390625q1.828125 0 2.859375 1.296875l0.078125 -1.109375l1.578125 0l0 9.796875q0 1.9375 -1.15625 3.0625q-1.15625 1.125 -3.109375 1.125q-1.078125 0 -2.125 -0.46875q-1.03125 -0.453125 -1.578125 -1.265625l0.890625 -1.03125q1.09375 1.359375 2.6875 1.359375q1.265625 0 1.953125 -0.703125q0.703125 -0.703125 0.703125 -1.984375l0 -0.859375q-1.03125 1.1875 -2.8125 1.1875q-1.75 0 -2.84375 -1.421875q-1.09375 -1.421875 -1.09375 -3.875zm1.71875 0.203125q0 1.703125 0.703125 2.671875q0.703125 0.96875 1.953125 0.96875q1.625 0 2.375 -1.484375l0 -4.578125q-0.78125 -1.4375 -2.359375 -1.4375q-1.25 0 -1.96875 0.984375q-0.703125 0.96875 -0.703125 2.875zm14.373058 -0.5625l-3.171875 0l0 5.46875l-1.78125 0l0 -13.515625l4.46875 0q2.28125 0 3.5 1.046875q1.234375 1.03125 1.234375 3.03125q0 1.25 -0.6875 2.1875q-0.671875 0.9375 -1.890625 1.40625l3.171875 5.734375l0 0.109375l-1.90625 0l-2.9375 -5.46875zm-3.171875 -1.453125l2.75 0q1.3125 0 2.09375 -0.6875q0.796875 -0.6875 0.796875 -1.828125q0 -1.265625 -0.75 -1.921875q-0.75 -0.671875 -2.15625 -0.6875l-2.734375 0l0 5.125zm11.487076 1.640625l0 5.28125l-1.78125 0l0 -13.515625l4.984375 0q2.21875 0 3.46875 1.140625q1.265625 1.125 1.265625 3.0q0 1.96875 -1.234375 3.03125q-1.21875 1.0625 -3.515625 1.0625l-3.1875 0zm0 -1.46875l3.203125 0q1.4375 0 2.1875 -0.671875q0.765625 -0.671875 0.765625 -1.9375q0 -1.203125 -0.765625 -1.921875q-0.75 -0.734375 -2.078125 -0.765625l-3.3125 0l0 5.296875zm19.92572 2.46875q-0.25 2.140625 -1.578125 3.3125q-1.328125 1.15625 -3.53125 1.15625q-2.40625 0 -3.84375 -1.71875q-1.4375 -1.71875 -1.4375 -4.59375l0 -1.296875q0 -1.890625 0.671875 -3.3125q0.671875 -1.421875 1.90625 -2.1875q1.234375 -0.765625 2.859375 -0.765625q2.140625 0 3.4375 1.203125q1.3125 1.1875 1.515625 3.3125l-1.78125 0q-0.234375 -1.609375 -1.015625 -2.328125q-0.765625 -0.734375 -2.15625 -0.734375q-1.71875 0 -2.6875 1.265625q-0.96875 1.265625 -0.96875 3.59375l0 1.3125q0 2.1875 0.921875 3.5q0.921875 1.296875 2.578125 1.296875q1.484375 0 2.265625 -0.671875q0.796875 -0.671875 1.0625 -2.34375l1.78125 0zm10.80835 -1.734375q-2.296875 -0.671875 -3.34375 -1.625q-1.03125 -0.953125 -1.03125 -2.375q0 -1.59375 1.265625 -2.625q1.28125 -1.046875 3.328125 -1.046875q1.390625 0 2.46875 0.53125q1.09375 0.53125 1.6875 1.484375q0.609375 0.953125 0.609375 2.0625l-1.796875 0q0 -1.21875 -0.78125 -1.921875q-0.765625 -0.703125 -2.1875 -0.703125q-1.328125 0 -2.0625 0.59375q-0.734375 0.578125 -0.734375 1.609375q0 0.8125 0.703125 1.390625q0.703125 0.5625 2.375 1.046875q1.6875 0.46875 2.640625 1.046875q0.953125 0.5625 1.40625 1.328125q0.46875 0.75 0.46875 1.78125q0 1.640625 -1.28125 2.640625q-1.28125 0.984375 -3.421875 0.984375q-1.390625 0 -2.609375 -0.53125q-1.203125 -0.53125 -1.859375 -1.453125q-0.640625 -0.9375 -0.640625 -2.125l1.78125 0q0 1.234375 0.90625 1.953125q0.90625 0.703125 2.421875 0.703125q1.40625 0 2.15625 -0.578125q0.75 -0.578125 0.75 -1.5625q0 -1.0 -0.703125 -1.546875q-0.6875 -0.546875 -2.515625 -1.0625zm10.989914 6.203125q-2.046875 0 -3.328125 -1.34375q-1.28125 -1.34375 -1.28125 -3.578125l0 -0.328125q0 -1.484375 0.5625 -2.65625q0.578125 -1.171875 1.59375 -1.828125q1.03125 -0.671875 2.234375 -0.671875q1.953125 0 3.03125 1.296875q1.09375 1.28125 1.09375 3.6875l0 0.703125l-6.796875 0q0.03125 1.484375 0.859375 2.40625q0.84375 0.90625 2.125 0.90625q0.90625 0 1.53125 -0.359375q0.640625 -0.375 1.109375 -0.984375l1.046875 0.8125q-1.265625 1.9375 -3.78125 1.9375zm-0.21875 -9.0q-1.03125 0 -1.75 0.765625q-0.703125 0.75 -0.859375 2.109375l5.015625 0l0 -0.125q-0.0625 -1.3125 -0.703125 -2.03125q-0.625 -0.71875 -1.703125 -0.71875zm10.790062 0.3125q-0.390625 -0.0625 -0.84375 -0.0625q-1.6875 0 -2.296875 1.4375l0 7.125l-1.7187576 0l0 -10.03125l1.6718826 0l0.03125 1.15625q0.84375 -1.34375 2.390625 -1.34375q0.5 0 0.765625 0.125l0 1.59375zm4.7660065 6.171875l2.484375 -7.703125l1.75 0l-3.59375 10.03125l-1.3125 0l-3.625 -10.03125l1.75 0l2.546875 7.703125zm9.895996 2.515625q-2.046875 0 -3.328125 -1.34375q-1.28125 -1.34375 -1.28125 -3.578125l0 -0.328125q0 -1.484375 0.5625 -2.65625q0.578125 -1.171875 1.59375 -1.828125q1.03125 -0.671875 2.234375 -0.671875q1.953125 0 3.03125 1.296875q1.09375 1.28125 1.09375 3.6875l0 0.703125l-6.796875 0q0.03125 1.484375 0.859375 2.40625q0.84375 0.90625 2.125 0.90625q0.90625 0 1.53125 -0.359375q0.640625 -0.375 1.109375 -0.984375l1.046875 0.8125q-1.265625 1.9375 -3.78125 1.9375zm-0.21875 -9.0q-1.03125 0 -1.75 0.765625q-0.703125 0.75 -0.859375 2.109375l5.015625 0l0 -0.125q-0.0625 -1.3125 -0.703125 -2.03125q-0.625 -0.71875 -1.703125 -0.71875zm10.790054 0.3125q-0.390625 -0.0625 -0.84375 -0.0625q-1.6875 0 -2.296875 1.4375l0 7.125l-1.71875 0l0 -10.03125l1.671875 0l0.03125 1.15625q0.84375 -1.34375 2.390625 -1.34375q0.5 0 0.765625 0.125l0 1.59375z" fill-rule="nonzero"></path><path fill="#000000" fill-opacity="0.0" d="m484.68765 145.56364l183.2756 0l0 42.86615l-183.2756 0z" fill-rule="evenodd"></path><path fill="#ffffff" d="m528.1869 170.71802q-0.6875 0.984375 -1.921875 1.46875q-1.234375 0.484375 -2.859375 0.484375q-1.65625 0 -2.9375 -0.765625q-1.28125 -0.78125 -1.984375 -2.203125q-0.6875 -1.4375 -0.71875 -3.328125l0 -1.171875q0 -3.046875 1.421875 -4.71875q1.4375 -1.6875 4.015625 -1.6875q2.109375 0 3.390625 1.078125q1.296875 1.078125 1.59375 3.0625l-1.78125 0q-0.5 -2.6875 -3.203125 -2.6875q-1.78125 0 -2.703125 1.265625q-0.921875 1.25 -0.9375 3.640625l0 1.109375q0 2.265625 1.03125 3.609375q1.046875 1.34375 2.8125 1.34375q1.015625 0 1.765625 -0.21875q0.75 -0.234375 1.234375 -0.765625l0 -3.03125l-3.125 0l0 -1.4375l4.90625 0l0 4.953125zm2.0046387 -3.34375q0 -1.484375 0.578125 -2.65625q0.578125 -1.171875 1.609375 -1.8125q1.046875 -0.640625 2.375 -0.640625q2.046875 0 3.3125 1.421875q1.265625 1.40625 1.265625 3.765625l0 0.125q0 1.46875 -0.5625 2.640625q-0.5625 1.15625 -1.609375 1.8125q-1.046875 0.640625 -2.390625 0.640625q-2.046875 0 -3.3125 -1.421875q-1.265625 -1.421875 -1.265625 -3.75l0 -0.125zm1.71875 0.203125q0 1.671875 0.78125 2.6875q0.78125 1.0 2.078125 1.0q1.296875 0 2.0625 -1.015625q0.78125 -1.03125 0.78125 -2.875q0 -1.65625 -0.78125 -2.671875q-0.78125 -1.03125 -2.078125 -1.03125q-1.28125 0 -2.0625 1.015625q-0.78125 1.0 -0.78125 2.890625zm17.858643 0q0 2.296875 -1.046875 3.703125q-1.046875 1.390625 -2.84375 1.390625q-1.828125 0 -2.875 -1.15625l0 4.828125l-1.71875 0l0 -13.890625l1.5625 0l0.09375 1.109375q1.046875 -1.296875 2.90625 -1.296875q1.8125 0 2.859375 1.359375q1.0625 1.359375 1.0625 3.796875l0 0.15625zm-1.71875 -0.203125q0 -1.6875 -0.734375 -2.671875q-0.71875 -0.984375 -1.96875 -0.984375q-1.5625 0 -2.34375 1.375l0 4.796875q0.765625 1.375 2.359375 1.375q1.234375 0 1.953125 -0.96875q0.734375 -0.984375 0.734375 -2.921875zm5.419922 -3.71875q1.140625 -1.390625 2.96875 -1.390625q3.1875 0 3.203125 3.578125l0 6.640625l-1.703125 0l0 -6.640625q-0.015625 -1.09375 -0.5 -1.609375q-0.484375 -0.515625 -1.515625 -0.515625q-0.84375 0 -1.46875 0.453125q-0.625 0.4375 -0.984375 1.15625l0 7.15625l-1.71875 0l0 -14.25l1.71875 0l0 5.421875zm12.728638 9.015625q-2.046875 0 -3.328125 -1.34375q-1.28125 -1.34375 -1.28125 -3.578125l0 -0.328125q0 -1.484375 0.5625 -2.65625q0.578125 -1.171875 1.59375 -1.828125q1.03125 -0.671875 2.234375 -0.671875q1.953125 0 3.03125 1.296875q1.09375 1.28125 1.09375 3.6875l0 0.703125l-6.796875 0q0.03125 1.484375 0.859375 2.40625q0.84375 0.90625 2.125 0.90625q0.90625 0 1.53125 -0.359375q0.640625 -0.375 1.109375 -0.984375l1.046875 0.8125q-1.265625 1.9375 -3.78125 1.9375zm-0.21875 -9.0q-1.03125 0 -1.75 0.765625q-0.703125 0.75 -0.859375 2.109375l5.015625 0l0 -0.125q-0.0625 -1.3125 -0.703125 -2.03125q-0.625 -0.71875 -1.703125 -0.71875zm10.7901 0.3125q-0.390625 -0.0625 -0.84375 -0.0625q-1.6875 0 -2.296875 1.4375l0 7.125l-1.71875 0l0 -10.03125l1.671875 0l0.03125 1.15625q0.84375 -1.34375 2.390625 -1.34375q0.5 0 0.765625 0.125l0 1.59375zm7.390991 -5.015625l1.78125 0l0 9.578125q0 1.9375 -1.171875 3.03125q-1.15625 1.09375 -3.09375 1.09375q-2.015625 0 -3.140625 -1.03125q-1.125 -1.03125 -1.125 -2.890625l1.78125 0q0 1.171875 0.640625 1.828125q0.640625 0.640625 1.84375 0.640625q1.109375 0 1.78125 -0.6875q0.6875 -0.703125 0.703125 -1.96875l0 -9.59375zm8.606201 7.5q-2.296875 -0.671875 -3.34375 -1.625q-1.03125 -0.953125 -1.03125 -2.375q0 -1.59375 1.265625 -2.625q1.28125 -1.046875 3.328125 -1.046875q1.390625 0 2.46875 0.53125q1.09375 0.53125 1.6875 1.484375q0.609375 0.953125 0.609375 2.0625l-1.796875 0q0 -1.21875 -0.78125 -1.921875q-0.765625 -0.703125 -2.1875 -0.703125q-1.328125 0 -2.0625 0.59375q-0.734375 0.578125 -0.734375 1.609375q0 0.8125 0.703125 1.390625q0.703125 0.5625 2.375 1.046875q1.6875 0.46875 2.640625 1.046875q0.953125 0.5625 1.40625 1.328125q0.46875 0.75 0.46875 1.78125q0 1.640625 -1.28125 2.640625q-1.28125 0.984375 -3.421875 0.984375q-1.390625 0 -2.609375 -0.53125q-1.203125 -0.53125 -1.859375 -1.453125q-0.640625 -0.9375 -0.640625 -2.125l1.78125 0q0 1.234375 0.90625 1.953125q0.90625 0.703125 2.421875 0.703125q1.40625 0 2.15625 -0.578125q0.75 -0.578125 0.75 -1.5625q0 -1.0 -0.703125 -1.546875q-0.6875 -0.546875 -2.515625 -1.0625zm19.17096 2.484375l-5.65625 0l-1.28125 3.53125l-1.828125 0l5.15625 -13.515625l1.5625 0l5.15625 13.515625l-1.828125 0l-1.28125 -3.53125zm-5.125 -1.453125l4.59375 0l-2.296875 -6.328125l-2.296875 6.328125zm18.045288 0.078125q0 2.296875 -1.046875 3.703125q-1.046875 1.390625 -2.84375 1.390625q-1.828125 0 -2.875 -1.15625l0 4.828125l-1.71875 0l0 -13.890625l1.5625 0l0.09375 1.109375q1.046875 -1.296875 2.90625 -1.296875q1.8125 0 2.859375 1.359375q1.0625 1.359375 1.0625 3.796875l0 0.15625zm-1.71875 -0.203125q0 -1.6875 -0.734375 -2.671875q-0.71875 -0.984375 -1.96875 -0.984375q-1.5625 0 -2.34375 1.375l0 4.796875q0.765625 1.375 2.359375 1.375q1.234375 0 1.953125 -0.96875q0.734375 -0.984375 0.734375 -2.921875zm12.185547 0.203125q0 2.296875 -1.046875 3.703125q-1.046875 1.390625 -2.84375 1.390625q-1.828125 0 -2.875 -1.15625l0 4.828125l-1.71875 0l0 -13.890625l1.5625 0l0.09375 1.109375q1.046875 -1.296875 2.90625 -1.296875q1.8125 0 2.859375 1.359375q1.0625 1.359375 1.0625 3.796875l0 0.15625zm-1.71875 -0.203125q0 -1.6875 -0.734375 -2.671875q-0.71875 -0.984375 -1.96875 -0.984375q-1.5625 0 -2.34375 1.375l0 4.796875q0.765625 1.375 2.359375 1.375q1.234375 0 1.953125 -0.96875q0.734375 -0.984375 0.734375 -2.921875z" fill-rule="nonzero"></path><path fill="#000000" fill-opacity="0.0" d="m14.433071 145.56496l183.27559 0l0 42.86615l-183.27559 0z" fill-rule="evenodd"></path><path fill="#ffffff" d="m73.39568 170.71933q-0.6875 0.984375 -1.921875 1.46875q-1.234375 0.484375 -2.859375 0.484375q-1.65625 0 -2.9375 -0.765625q-1.28125 -0.78125 -1.9843712 -2.203125q-0.6875 -1.4375 -0.71875 -3.328125l0 -1.171875q0 -3.046875 1.4218712 -4.71875q1.4375 -1.6875 4.015625 -1.6875q2.109375 0 3.390625 1.078125q1.296875 1.078125 1.59375 3.0625l-1.78125 0q-0.5 -2.6875 -3.203125 -2.6875q-1.78125 0 -2.703125 1.265625q-0.921875 1.25 -0.9375 3.640625l0 1.109375q0 2.265625 1.03125 3.609375q1.046875 1.34375 2.8125 1.34375q1.015625 0 1.765625 -0.21875q0.75 -0.234375 1.234375 -0.765625l0 -3.03125l-3.125 0l0 -1.4375l4.90625 0l0 4.953125zm2.0046234 -3.34375q0 -1.484375 0.578125 -2.65625q0.578125 -1.171875 1.609375 -1.8125q1.046875 -0.640625 2.375 -0.640625q2.046875 0 3.3125 1.421875q1.265625 1.40625 1.265625 3.765625l0 0.125q0 1.46875 -0.5625 2.640625q-0.5625 1.15625 -1.609375 1.8125q-1.046875 0.640625 -2.390625 0.640625q-2.046875 0 -3.3125 -1.421875q-1.265625 -1.421875 -1.265625 -3.75l0 -0.125zm1.71875 0.203125q0 1.671875 0.78125 2.6875q0.78125 1.0 2.078125 1.0q1.296875 0 2.0625 -1.015625q0.78125 -1.03125 0.78125 -2.875q0 -1.65625 -0.78125 -2.671875q-0.78125 -1.03125 -2.078125 -1.03125q-1.28125 0 -2.0625 1.015625q-0.78125 1.0 -0.78125 2.890625zm18.242783 -1.109375q-2.296875 -0.671875 -3.34375 -1.625q-1.03125 -0.953125 -1.03125 -2.375q0 -1.59375 1.265625 -2.625q1.28125 -1.046875 3.328125 -1.046875q1.390625 0 2.46875 0.53125q1.09375 0.53125 1.6875 1.484375q0.609375 0.953125 0.609375 2.0625l-1.796875 0q0 -1.21875 -0.78125 -1.921875q-0.765625 -0.703125 -2.1875 -0.703125q-1.328125 0 -2.0625 0.59375q-0.734375 0.578125 -0.734375 1.609375q0 0.8125 0.703125 1.390625q0.703125 0.5625 2.375 1.046875q1.6875 0.46875 2.640625 1.046875q0.953125 0.5625 1.40625 1.328125q0.46875 0.75 0.46875 1.78125q0 1.640625 -1.28125 2.640625q-1.28125 0.984375 -3.421875 0.984375q-1.390625 0 -2.609375 -0.53125q-1.203125 -0.53125 -1.859375 -1.453125q-0.640625 -0.9375 -0.640625 -2.125l1.78125 0q0 1.234375 0.90625 1.953125q0.90625 0.703125 2.421875 0.703125q1.40625 0 2.15625 -0.578125q0.75 -0.578125 0.75 -1.5625q0 -1.0 -0.703125 -1.546875q-0.6875 -0.546875 -2.515625 -1.0625zm10.989914 6.203125q-2.046875 0 -3.328125 -1.34375q-1.28125 -1.34375 -1.28125 -3.578125l0 -0.328125q0 -1.484375 0.5625 -2.65625q0.578125 -1.171875 1.59375 -1.828125q1.03125 -0.671875 2.234375 -0.671875q1.953125 0 3.03125 1.296875q1.09375 1.28125 1.09375 3.6875l0 0.703125l-6.796875 0q0.03125 1.484375 0.859375 2.40625q0.84375 0.90625 2.125 0.90625q0.90625 0 1.53125 -0.359375q0.640625 -0.375 1.109375 -0.984375l1.046875 0.8125q-1.265625 1.9375 -3.78125 1.9375zm-0.21875 -9.0q-1.03125 0 -1.75 0.765625q-0.703125 0.75 -0.859375 2.109375l5.015625 0l0 -0.125q-0.0625 -1.3125 -0.703125 -2.03125q-0.625 -0.71875 -1.703125 -0.71875zm10.790054 0.3125q-0.390625 -0.0625 -0.84375 -0.0625q-1.6875 0 -2.296875 1.4375l0 7.125l-1.71875 0l0 -10.03125l1.671875 0l0.03125 1.15625q0.84375 -1.34375 2.390625 -1.34375q0.5 0 0.765625 0.125l0 1.59375zm4.7660065 6.171875l2.484375 -7.703125l1.75 0l-3.59375 10.03125l-1.3125 0l-3.625 -10.03125l1.75 0l2.546875 7.703125zm7.5835037 2.328125l-1.7031326 0l0 -10.03125l1.7031326 0l0 10.03125zm-1.8437576 -12.703125q0 -0.421875 0.25 -0.703125q0.25 -0.28125 0.7500076 -0.28125q0.515625 0 0.765625 0.28125q0.265625 0.28125 0.265625 0.703125q0 0.421875 -0.265625 0.703125q-0.25 0.265625 -0.765625 0.265625q-0.5000076 0 -0.7500076 -0.265625q-0.25 -0.28125 -0.25 -0.703125zm8.543053 11.484375q0.921875 0 1.59375 -0.546875q0.6875 -0.5625 0.765625 -1.390625l1.625 0q-0.046875 0.859375 -0.59375 1.640625q-0.546875 0.765625 -1.46875 1.234375q-0.90625 0.46875 -1.921875 0.46875q-2.046875 0 -3.265625 -1.359375q-1.203125 -1.375 -1.203125 -3.75l0 -0.296875q0 -1.46875 0.53125 -2.609375q0.546875 -1.140625 1.546875 -1.765625q1.0 -0.625 2.375 -0.625q1.6875 0 2.796875 1.015625q1.125 1.0 1.203125 2.609375l-1.625 0q-0.078125 -0.96875 -0.734375 -1.59375q-0.65625 -0.625 -1.640625 -0.625q-1.296875 0 -2.03125 0.9375q-0.71875 0.9375 -0.71875 2.71875l0 0.328125q0 1.734375 0.71875 2.671875q0.71875 0.9375 2.046875 0.9375zm9.906006 1.40625q-2.046875 0 -3.328125 -1.34375q-1.28125 -1.34375 -1.28125 -3.578125l0 -0.328125q0 -1.484375 0.5625 -2.65625q0.578125 -1.171875 1.59375 -1.828125q1.03125 -0.671875 2.234375 -0.671875q1.953125 0 3.03125 1.296875q1.09375 1.28125 1.09375 3.6875l0 0.703125l-6.796875 0q0.03125 1.484375 0.859375 2.40625q0.84375 0.90625 2.125 0.90625q0.90625 0 1.53125 -0.359375q0.640625 -0.375 1.109375 -0.984375l1.046875 0.8125q-1.265625 1.9375 -3.78125 1.9375zm-0.21875 -9.0q-1.03125 0 -1.75 0.765625q-0.703125 0.75 -0.859375 2.109375l5.015625 0l0 -0.125q-0.0625 -1.3125 -0.703125 -2.03125q-0.625 -0.71875 -1.703125 -0.71875z" fill-rule="nonzero"></path><path fill="#000000" fill-opacity="0.0" d="m198.0105 49.522964c71.66928 0 107.50394 0.062992096 143.3386 0.12598419c35.834625 0.062992096 71.66928 0.12598419 143.33856 0.12598419" fill-rule="evenodd"></path><path stroke="#345f60" stroke-width="3.0" stroke-linejoin="round" stroke-linecap="butt" d="m216.0105 49.52498l7.26622 8.163452E-4c7.9088135 0.0018463135 15.327713 0.004550934 22.326675 0.00799942c13.997894 0.0068893433 26.31607 0.016731262 37.514374 0.028541565c22.396667 0.023620605 40.313995 0.05511856 58.231323 0.0866127c17.917328 0.031497955 35.834625 0.062992096 58.231293 0.086616516c11.198334 0.011810303 23.51648 0.021652222 37.514404 0.028541565c6.9989624 0.0034446716 14.417847 0.0061531067 22.32663 0.00799942l7.2662354 8.125305E-4" fill-rule="evenodd"></path><path fill="#345f60" stroke="#345f60" stroke-width="3.0" stroke-linecap="butt" d="m216.01105 44.569786l-13.614838 4.9536705l13.613739 4.9567223z" fill-rule="evenodd"></path><path fill="#345f60" stroke="#345f60" stroke-width="3.0" stroke-linecap="butt" d="m466.6871 54.728115l13.614868 -4.9536705l-13.613739 -4.9567223z" fill-rule="evenodd"></path><path fill="#000000" fill-opacity="0.0" d="m210.56955 15.748688l261.25986 0l0 20.251968l-261.25986 0z" fill-rule="evenodd"></path><path fill="#345f60" d="m260.219 40.10869l0 -11.375l3.71875 0q1.84375 0 2.78125 0.765625q0.9375 0.765625 0.9375 2.265625q0 0.796875 -0.453125 1.40625q-0.453125 0.609375 -1.234375 0.953125q0.921875 0.25 1.453125 0.984375q0.53125 0.71875 0.53125 1.71875q0 1.53125 -1.0 2.40625q-0.984375 0.875 -2.796875 0.875l-3.9375 0zm1.5 -5.328125l0 4.09375l2.46875 0q1.046875 0 1.65625 -0.53125q0.609375 -0.546875 0.609375 -1.5q0 -2.0625 -2.234375 -2.0625l-2.5 0zm0 -1.203125l2.265625 0q0.984375 0 1.5625 -0.484375q0.59375 -0.5 0.59375 -1.34375q0 -0.9375 -0.546875 -1.359375q-0.546875 -0.421875 -1.65625 -0.421875l-2.21875 0l0 3.609375zm9.8046875 6.53125l-1.453125 0l0 -8.453125l1.453125 0l0 8.453125zm-1.5625 -10.703125q0 -0.34375 0.203125 -0.578125q0.21875 -0.25 0.640625 -0.25q0.421875 0 0.640625 0.25q0.21875 0.234375 0.21875 0.59375q0 0.34375 -0.21875 0.578125q-0.21875 0.234375 -0.640625 0.234375q-0.421875 0 -0.640625 -0.234375q-0.203125 -0.234375 -0.203125 -0.59375zm5.2421875 2.25l0.046875 1.0625q0.96875 -1.21875 2.53125 -1.21875q2.671875 0 2.703125 3.015625l0 5.59375l-1.453125 0l0 -5.59375q0 -0.921875 -0.421875 -1.359375q-0.40625 -0.4375 -1.265625 -0.4375q-0.703125 0 -1.234375 0.375q-0.53125 0.375 -0.828125 0.984375l0 6.03125l-1.453125 0l0 -8.453125l1.375 0zm12.671875 8.453125q-0.125 -0.25 -0.203125 -0.890625q-1.0 1.046875 -2.40625 1.046875q-1.25 0 -2.046875 -0.703125q-0.796875 -0.71875 -0.796875 -1.796875q0 -1.328125 1.0 -2.046875q1.0 -0.734375 2.828125 -0.734375l1.40625 0l0 -0.671875q0 -0.75 -0.453125 -1.203125q-0.453125 -0.453125 -1.34375 -0.453125q-0.765625 0 -1.296875 0.390625q-0.515625 0.390625 -0.515625 0.953125l-1.453125 0q0 -0.640625 0.4375 -1.21875q0.453125 -0.59375 1.21875 -0.9375q0.78125 -0.34375 1.703125 -0.34375q1.453125 0 2.28125 0.734375q0.828125 0.71875 0.859375 2.0l0 3.890625q0 1.171875 0.296875 1.859375l0 0.125l-1.515625 0zm-2.390625 -1.109375q0.671875 0 1.28125 -0.34375q0.609375 -0.359375 0.890625 -0.921875l0 -1.734375l-1.140625 0q-2.65625 0 -2.65625 1.5625q0 0.671875 0.453125 1.0625q0.453125 0.375 1.171875 0.375zm9.96875 -6.046875q-0.328125 -0.0625 -0.71875 -0.0625q-1.421875 0 -1.921875 1.21875l0 6.0l-1.453125 0l0 -8.453125l1.40625 0l0.03125 0.96875q0.703125 -1.125 2.015625 -1.125q0.421875 0 0.640625 0.109375l0 1.34375zm4.0859375 5.03125l1.96875 -6.328125l1.546875 0l-3.390625 9.765625q-0.796875 2.109375 -2.515625 2.109375l-0.265625 -0.03125l-0.546875 -0.09375l0 -1.171875l0.390625 0.03125q0.734375 0 1.140625 -0.296875q0.421875 -0.296875 0.6875 -1.09375l0.3125 -0.859375l-3.015625 -8.359375l1.578125 0l2.109375 6.328125zm10.5 -2.328125l0 4.453125l-1.5 0l0 -11.375l4.1875 0q1.875 0 2.921875 0.953125q1.0625 0.953125 1.0625 2.515625q0 1.65625 -1.03125 2.5625q-1.03125 0.890625 -2.96875 0.890625l-2.671875 0zm0 -1.234375l2.6875 0q1.203125 0 1.84375 -0.5625q0.640625 -0.5625 0.640625 -1.640625q0 -1.015625 -0.640625 -1.625q-0.640625 -0.609375 -1.75 -0.625l-2.78125 0l0 4.453125zm12.453125 -1.46875q-0.328125 -0.0625 -0.71875 -0.0625q-1.421875 0 -1.921875 1.21875l0 6.0l-1.453125 0l0 -8.453125l1.40625 0l0.03125 0.96875q0.703125 -1.125 2.015625 -1.125q0.421875 0 0.640625 0.109375l0 1.34375zm0.9453125 2.84375q0 -1.234375 0.484375 -2.21875q0.484375 -1.0 1.359375 -1.53125q0.875 -0.546875 1.984375 -0.546875q1.734375 0 2.796875 1.203125q1.0625 1.1875 1.0625 3.171875l0 0.09375q0 1.234375 -0.46875 2.21875q-0.46875 0.984375 -1.359375 1.53125q-0.875 0.546875 -2.015625 0.546875q-1.71875 0 -2.78125 -1.1875q-1.0625 -1.203125 -1.0625 -3.171875l0 -0.109375zm1.453125 0.171875q0 1.40625 0.640625 2.265625q0.65625 0.84375 1.75 0.84375q1.109375 0 1.75 -0.859375q0.65625 -0.859375 0.65625 -2.421875q0 -1.390625 -0.671875 -2.25q-0.65625 -0.859375 -1.75 -0.859375q-1.0625 0 -1.71875 0.859375q-0.65625 0.84375 -0.65625 2.421875zm10.015625 -6.359375l0 2.046875l1.578125 0l0 1.109375l-1.578125 0l0 5.25q0 0.5 0.203125 0.765625q0.21875 0.25 0.71875 0.25q0.25 0 0.6875 -0.09375l0 1.171875q-0.5625 0.15625 -1.109375 0.15625q-0.96875 0 -1.46875 -0.578125q-0.484375 -0.59375 -0.484375 -1.671875l0 -5.25l-1.53125 0l0 -1.109375l1.53125 0l0 -2.046875l1.453125 0zm2.8828125 6.1875q0 -1.234375 0.484375 -2.21875q0.484375 -1.0 1.359375 -1.53125q0.875 -0.546875 1.984375 -0.546875q1.734375 0 2.796875 1.203125q1.0625 1.1875 1.0625 3.171875l0 0.09375q0 1.234375 -0.46875 2.21875q-0.46875 0.984375 -1.359375 1.53125q-0.875 0.546875 -2.015625 0.546875q-1.71875 0 -2.78125 -1.1875q-1.0625 -1.203125 -1.0625 -3.171875l0 -0.109375zm1.453125 0.171875q0 1.40625 0.640625 2.265625q0.65625 0.84375 1.75 0.84375q1.109375 0 1.75 -0.859375q0.65625 -0.859375 0.65625 -2.421875q0 -1.390625 -0.671875 -2.25q-0.65625 -0.859375 -1.75 -0.859375q-1.0625 0 -1.71875 0.859375q-0.65625 0.84375 -0.65625 2.421875zm14.1796875 -7.234375l3.71875 9.28125l3.71875 -9.28125l1.9375 0l0 11.375l-1.5 0l0 -4.4375l0.140625 -4.78125l-3.734375 9.21875l-1.140625 0l-3.734375 -9.1875l0.15625 4.75l0 4.4375l-1.5 0l0 -11.375l1.9375 0zm15.3125 11.53125q-1.71875 0 -2.796875 -1.125q-1.078125 -1.140625 -1.078125 -3.03125l0 -0.265625q0 -1.25 0.46875 -2.234375q0.484375 -1.0 1.34375 -1.546875q0.875 -0.5625 1.875 -0.5625q1.65625 0 2.5625 1.09375q0.921875 1.078125 0.921875 3.09375l0 0.609375l-5.734375 0q0.03125 1.25 0.734375 2.015625q0.703125 0.765625 1.78125 0.765625q0.765625 0 1.296875 -0.3125q0.53125 -0.3125 0.921875 -0.828125l0.890625 0.6875q-1.0625 1.640625 -3.1875 1.640625zm-0.1875 -7.578125q-0.875 0 -1.46875 0.640625q-0.59375 0.625 -0.734375 1.78125l4.234375 0l0 -0.109375q-0.0625 -1.109375 -0.59375 -1.703125q-0.53125 -0.609375 -1.4375 -0.609375zm10.0703125 5.171875q0 -0.578125 -0.4375 -0.90625q-0.4375 -0.328125 -1.546875 -0.5625q-1.09375 -0.234375 -1.734375 -0.5625q-0.640625 -0.328125 -0.953125 -0.78125q-0.3125 -0.453125 -0.3125 -1.078125q0 -1.03125 0.875 -1.75q0.890625 -0.71875 2.25 -0.71875q1.4375 0 2.328125 0.75q0.90625 0.734375 0.90625 1.890625l-1.453125 0q0 -0.59375 -0.515625 -1.015625q-0.5 -0.4375 -1.265625 -0.4375q-0.78125 0 -1.234375 0.34375q-0.4375 0.34375 -0.4375 0.890625q0 0.53125 0.40625 0.796875q0.421875 0.265625 1.5 0.515625q1.078125 0.234375 1.75 0.578125q0.671875 0.328125 1.0 0.796875q0.328125 0.46875 0.328125 1.15625q0 1.125 -0.90625 1.8125q-0.90625 0.6875 -2.359375 0.6875q-1.015625 0 -1.796875 -0.359375q-0.78125 -0.359375 -1.21875 -1.0q-0.4375 -0.65625 -0.4375 -1.40625l1.4375 0q0.046875 0.734375 0.578125 1.15625q0.546875 0.421875 1.4375 0.421875q0.828125 0 1.3125 -0.328125q0.5 -0.328125 0.5 -0.890625zm8.25 0q0 -0.578125 -0.4375 -0.90625q-0.4375 -0.328125 -1.546875 -0.5625q-1.09375 -0.234375 -1.734375 -0.5625q-0.640625 -0.328125 -0.953125 -0.78125q-0.3125 -0.453125 -0.3125 -1.078125q0 -1.03125 0.875 -1.75q0.890625 -0.71875 2.25 -0.71875q1.4375 0 2.328125 0.75q0.90625 0.734375 0.90625 1.890625l-1.453125 0q0 -0.59375 -0.515625 -1.015625q-0.5 -0.4375 -1.265625 -0.4375q-0.78125 0 -1.234375 0.34375q-0.4375 0.34375 -0.4375 0.890625q0 0.53125 0.40625 0.796875q0.421875 0.265625 1.5 0.515625q1.078125 0.234375 1.75 0.578125q0.671875 0.328125 1.0 0.796875q0.328125 0.46875 0.328125 1.15625q0 1.125 -0.90625 1.8125q-0.90625 0.6875 -2.359375 0.6875q-1.015625 0 -1.796875 -0.359375q-0.78125 -0.359375 -1.21875 -1.0q-0.4375 -0.65625 -0.4375 -1.40625l1.4375 0q0.046875 0.734375 0.578125 1.15625q0.546875 0.421875 1.4375 0.421875q0.828125 0 1.3125 -0.328125q0.5 -0.328125 0.5 -0.890625zm8.546875 2.25q-0.125 -0.25 -0.203125 -0.890625q-1.0 1.046875 -2.40625 1.046875q-1.25 0 -2.046875 -0.703125q-0.796875 -0.71875 -0.796875 -1.796875q0 -1.328125 1.0 -2.046875q1.0 -0.734375 2.828125 -0.734375l1.40625 0l0 -0.671875q0 -0.75 -0.453125 -1.203125q-0.453125 -0.453125 -1.34375 -0.453125q-0.765625 0 -1.296875 0.390625q-0.515625 0.390625 -0.515625 0.953125l-1.453125 0q0 -0.640625 0.4375 -1.21875q0.453125 -0.59375 1.21875 -0.9375q0.78125 -0.34375 1.703125 -0.34375q1.453125 0 2.28125 0.734375q0.828125 0.71875 0.859375 2.0l0 3.890625q0 1.171875 0.296875 1.859375l0 0.125l-1.515625 0zm-2.390625 -1.109375q0.671875 0 1.28125 -0.34375q0.609375 -0.359375 0.890625 -0.921875l0 -1.734375l-1.140625 0q-2.65625 0 -2.65625 1.5625q0 0.671875 0.453125 1.0625q0.453125 0.375 1.171875 0.375zm5.53125 -3.1875q0 -1.984375 0.90625 -3.140625q0.921875 -1.171875 2.4375 -1.171875q1.546875 0 2.40625 1.09375l0.078125 -0.9375l1.3125 0l0 8.25q0 1.640625 -0.96875 2.578125q-0.96875 0.953125 -2.609375 0.953125q-0.921875 0 -1.796875 -0.390625q-0.875 -0.390625 -1.328125 -1.0625l0.75 -0.875q0.921875 1.15625 2.265625 1.15625q1.0625 0 1.640625 -0.59375q0.59375 -0.59375 0.59375 -1.6875l0 -0.71875q-0.859375 1.0 -2.359375 1.0q-1.484375 0 -2.40625 -1.1875q-0.921875 -1.203125 -0.921875 -3.265625zm1.453125 0.15625q0 1.4375 0.578125 2.25q0.59375 0.8125 1.65625 0.8125q1.359375 0 2.0 -1.234375l0 -3.859375q-0.65625 -1.21875 -1.984375 -1.21875q-1.0625 0 -1.65625 0.828125q-0.59375 0.8125 -0.59375 2.421875zm11.3828125 4.296875q-1.71875 0 -2.796875 -1.125q-1.078125 -1.140625 -1.078125 -3.03125l0 -0.265625q0 -1.25 0.46875 -2.234375q0.484375 -1.0 1.34375 -1.546875q0.875 -0.5625 1.875 -0.5625q1.65625 0 2.5625 1.09375q0.921875 1.078125 0.921875 3.09375l0 0.609375l-5.734375 0q0.03125 1.25 0.734375 2.015625q0.703125 0.765625 1.78125 0.765625q0.765625 0 1.296875 -0.3125q0.53125 -0.3125 0.921875 -0.828125l0.890625 0.6875q-1.0625 1.640625 -3.1875 1.640625zm-0.1875 -7.578125q-0.875 0 -1.46875 0.640625q-0.59375 0.625 -0.734375 1.78125l4.234375 0l0 -0.109375q-0.0625 -1.109375 -0.59375 -1.703125q-0.53125 -0.609375 -1.4375 -0.609375zm10.0703125 5.171875q0 -0.578125 -0.4375 -0.90625q-0.4375 -0.328125 -1.546875 -0.5625q-1.09375 -0.234375 -1.734375 -0.5625q-0.640625 -0.328125 -0.953125 -0.78125q-0.3125 -0.453125 -0.3125 -1.078125q0 -1.03125 0.875 -1.75q0.890625 -0.71875 2.25 -0.71875q1.4375 0 2.328125 0.75q0.90625 0.734375 0.90625 1.890625l-1.453125 0q0 -0.59375 -0.515625 -1.015625q-0.5 -0.4375 -1.265625 -0.4375q-0.78125 0 -1.234375 0.34375q-0.4375 0.34375 -0.4375 0.890625q0 0.53125 0.40625 0.796875q0.421875 0.265625 1.5 0.515625q1.078125 0.234375 1.75 0.578125q0.671875 0.328125 1.0 0.796875q0.328125 0.46875 0.328125 1.15625q0 1.125 -0.90625 1.8125q-0.90625 0.6875 -2.359375 0.6875q-1.015625 0 -1.796875 -0.359375q-0.78125 -0.359375 -1.21875 -1.0q-0.4375 -0.65625 -0.4375 -1.40625l1.4375 0q0.046875 0.734375 0.578125 1.15625q0.546875 0.421875 1.4375 0.421875q0.828125 0 1.3125 -0.328125q0.5 -0.328125 0.5 -0.890625z" fill-rule="nonzero"></path><path fill="#000000" fill-opacity="0.0" d="m210.56955 52.499344l261.25986 0l0 20.251968l-261.25986 0z" fill-rule="evenodd"></path><path fill="#345f60" d="m287.82837 76.859344l-1.5 0l0 -5.265625l-5.734375 0l0 5.265625l-1.5 0l0 -11.375l1.5 0l0 4.890625l5.734375 0l0 -4.890625l1.5 0l0 11.375zm10.53125 -10.140625l-3.65625 0l0 10.140625l-1.5 0l0 -10.140625l-3.640625 0l0 -1.234375l8.796875 0l0 1.234375zm9.546875 0l-3.65625 0l0 10.140625l-1.5 0l0 -10.140625l-3.640625 0l0 -1.234375l8.796875 0l0 1.234375zm3.1875 5.6875l0 4.453125l-1.5 0l0 -11.375l4.1875 0q1.875 0 2.921875 0.953125q1.0625 0.953125 1.0625 2.515625q0 1.65625 -1.03125 2.5625q-1.03125 0.890625 -2.96875 0.890625l-2.671875 0zm0 -1.234375l2.6875 0q1.203125 0 1.84375 -0.5625q0.640625 -0.5625 0.640625 -1.640625q0 -1.015625 -0.640625 -1.625q-0.640625 -0.609375 -1.75 -0.625l-2.78125 0l0 4.453125zm16.929688 5.6875l-1.453125 0l0 -9.640625l-2.921875 1.078125l0 -1.3125l4.140625 -1.5625l0.234375 0l0 11.4375zm4.40625 -0.765625q0 -0.375 0.21875 -0.625q0.234375 -0.25 0.671875 -0.25q0.453125 0 0.671875 0.25q0.234375 0.25 0.234375 0.625q0 0.359375 -0.234375 0.609375q-0.21875 0.25 -0.671875 0.25q-0.4375 0 -0.671875 -0.25q-0.21875 -0.25 -0.21875 -0.609375zm8.7890625 0.765625l-1.453125 0l0 -9.640625l-2.921875 1.078125l0 -1.3125l4.140625 -1.5625l0.234375 0l0 11.4375zm4.671875 0.984375l-1.25 0l4.75 -12.359375l1.234375 0l-4.734375 12.359375zm15.265625 -0.984375l-1.5 0l0 -5.265625l-5.734375 0l0 5.265625l-1.5 0l0 -11.375l1.5 0l0 4.890625l5.734375 0l0 -4.890625l1.5 0l0 11.375zm10.53125 -10.140625l-3.65625 0l0 10.140625l-1.5 0l0 -10.140625l-3.640625 0l0 -1.234375l8.796875 0l0 1.234375zm9.546875 0l-3.65625 0l0 10.140625l-1.5 0l0 -10.140625l-3.640625 0l0 -1.234375l8.796875 0l0 1.234375zm3.1875 5.6875l0 4.453125l-1.5 0l0 -11.375l4.1875 0q1.875 0 2.921875 0.953125q1.0625 0.953125 1.0625 2.515625q0 1.65625 -1.03125 2.5625q-1.03125 0.890625 -2.96875 0.890625l-2.671875 0zm0 -1.234375l2.6875 0q1.203125 0 1.84375 -0.5625q0.640625 -0.5625 0.640625 -1.640625q0 -1.015625 -0.640625 -1.625q-0.640625 -0.609375 -1.75 -0.625l-2.78125 0l0 4.453125zm19.632812 5.6875l-7.453125 0l0 -1.046875l3.9375 -4.375q0.875 -0.984375 1.203125 -1.609375q0.328125 -0.625 0.328125 -1.28125q0 -0.890625 -0.546875 -1.453125q-0.53125 -0.578125 -1.421875 -0.578125q-1.078125 0 -1.6875 0.609375q-0.59375 0.609375 -0.59375 1.703125l-1.4375 0q0 -1.5625 1.0 -2.53125q1.015625 -0.96875 2.71875 -0.96875q1.578125 0 2.5 0.828125q0.921875 0.828125 0.921875 2.21875q0 1.671875 -2.140625 4.0l-3.046875 3.296875l5.71875 0l0 1.1875z" fill-rule="nonzero"></path></g></svg>

